<svg width="242" height="122" viewBox="0 0 242 122" fill="none" xmlns="http://www.w3.org/2000/svg">
<rect x="0.5" y="0.5" width="241" height="121" stroke="black" stroke-opacity="0.05"/>
<path d="M76.3913 73.0938H70.1697C70.0561 72.2888 69.8241 71.5739 69.4737 70.9489C69.1233 70.3144 68.6735 69.7746 68.1243 69.3295C67.575 68.8845 66.9406 68.5436 66.2209 68.3068C65.5107 68.0701 64.7389 67.9517 63.9055 67.9517C62.3999 67.9517 61.0883 68.3258 59.9709 69.0739C58.8535 69.8125 57.987 70.892 57.3714 72.3125C56.7559 73.7235 56.4482 75.4375 56.4482 77.4545C56.4482 79.5284 56.7559 81.2708 57.3714 82.6818C57.9964 84.0928 58.8677 85.1581 59.9851 85.8778C61.1025 86.5975 62.3951 86.9574 63.8629 86.9574C64.6868 86.9574 65.4491 86.8485 66.1499 86.6307C66.8601 86.4129 67.4898 86.0956 68.0391 85.679C68.5883 85.2528 69.0429 84.7367 69.4027 84.1307C69.772 83.5246 70.0277 82.8333 70.1697 82.0568L76.3913 82.0852C76.2304 83.4205 75.8279 84.7083 75.1839 85.9489C74.5495 87.1799 73.6925 88.2831 72.6129 89.2585C71.5429 90.2244 70.2644 90.9915 68.7777 91.5597C67.3004 92.1184 65.629 92.3977 63.7635 92.3977C61.1688 92.3977 58.8487 91.8106 56.8033 90.6364C54.7673 89.4621 53.1574 87.7623 51.9737 85.5369C50.7995 83.3116 50.2124 80.6174 50.2124 77.4545C50.2124 74.2822 50.8089 71.5833 52.0021 69.358C53.1953 67.1326 54.8146 65.4375 56.8601 64.2727C58.9055 63.0985 61.2067 62.5114 63.7635 62.5114C65.4491 62.5114 67.0116 62.7481 68.451 63.2216C69.8999 63.6951 71.183 64.3864 72.3004 65.2955C73.4179 66.1951 74.3269 67.2983 75.0277 68.6051C75.7379 69.9119 76.1925 71.4081 76.3913 73.0938ZM80.8018 92V62.9091H86.9524V86.929H99.424V92H80.8018ZM109.648 62.9091V92H103.497V62.9091H109.648ZM114.708 92V62.9091H134.31V67.9801H120.859V74.9119H133.302V79.983H120.859V86.929H134.367V92H114.708ZM163.533 62.9091V92H158.22L145.564 73.6903H145.351V92H139.2V62.9091H144.598L157.155 81.2045H157.411V62.9091H163.533ZM167.506 67.9801V62.9091H191.398V67.9801H182.492V92H176.413V67.9801H167.506Z" fill="#6B7280"/>
<path d="M37.9773 115V97.5455H43.0909C44.0682 97.5455 44.9318 97.7642 45.6818 98.2017C46.4375 98.6392 47.0284 99.2415 47.4545 100.009C47.8864 100.776 48.1023 101.659 48.1023 102.659C48.1023 103.648 47.8864 104.526 47.4545 105.293C47.0284 106.054 46.4375 106.653 45.6818 107.091C44.9318 107.523 44.0682 107.739 43.0909 107.739H38.25V107.193H43.0909C43.9659 107.193 44.7386 107 45.4091 106.614C46.0795 106.227 46.6051 105.693 46.9858 105.011C47.3665 104.33 47.5568 103.545 47.5568 102.659C47.5568 101.767 47.3665 100.977 46.9858 100.29C46.6051 99.6023 46.0795 99.0653 45.4091 98.679C44.7386 98.2869 43.9659 98.0909 43.0909 98.0909H38.5227V115H37.9773ZM52.532 115V97.5455H53.0774V114.455H61.8047V115H52.532ZM65.7699 115H65.1903L71.429 97.5455H72.179L78.4176 115H77.8381L71.8381 98.2273H71.7699L65.7699 115ZM67.7472 108.557H75.8608V109.102H67.7472V108.557ZM94.0227 103H93.4432C93.3352 102.42 93.125 101.83 92.8125 101.227C92.5 100.625 92.0852 100.068 91.5682 99.5568C91.0511 99.0455 90.4403 98.6335 89.7358 98.321C89.0313 98.0085 88.233 97.8523 87.3409 97.8523C86.1477 97.8523 85.0426 98.179 84.0256 98.8324C83.0142 99.4801 82.1989 100.432 81.5795 101.688C80.9659 102.938 80.6591 104.466 80.6591 106.273C80.6591 108.102 80.9659 109.642 81.5795 110.892C82.1989 112.142 83.0142 113.088 84.0256 113.73C85.0426 114.372 86.1477 114.693 87.3409 114.693C88.233 114.693 89.0313 114.54 89.7358 114.233C90.4403 113.92 91.0511 113.511 91.5682 113.006C92.0852 112.494 92.5 111.937 92.8125 111.335C93.125 110.727 93.3352 110.131 93.4432 109.545H94.0227C93.9148 110.159 93.6989 110.798 93.375 111.463C93.0511 112.122 92.6136 112.739 92.0625 113.312C91.5114 113.886 90.8438 114.352 90.0597 114.71C89.2756 115.062 88.3693 115.239 87.3409 115.239C85.9091 115.239 84.6506 114.864 83.5653 114.114C82.4801 113.364 81.6335 112.315 81.0256 110.969C80.4176 109.622 80.1136 108.057 80.1136 106.273C80.1136 104.489 80.4176 102.923 81.0256 101.577C81.6335 100.23 82.4801 99.1818 83.5653 98.4318C84.6506 97.6818 85.9091 97.3068 87.3409 97.3068C88.3693 97.3068 89.2756 97.483 90.0597 97.8352C90.8438 98.1875 91.5114 98.6506 92.0625 99.2244C92.6136 99.7926 93.0511 100.409 93.375 101.074C93.6989 101.733 93.9148 102.375 94.0227 103ZM98.446 115V97.5455H107.753V98.0909H98.9915V106H107.241V106.545H98.9915V114.455H107.991V115H98.446ZM112.462 115V97.5455H113.007V106H124.121V97.5455H124.666V115H124.121V106.545H113.007V115H112.462ZM143.576 106.273C143.576 108.051 143.272 109.614 142.664 110.96C142.056 112.307 141.21 113.358 140.124 114.114C139.039 114.864 137.781 115.239 136.349 115.239C134.911 115.239 133.65 114.861 132.565 114.105C131.479 113.349 130.633 112.298 130.025 110.952C129.423 109.605 129.121 108.045 129.121 106.273C129.121 104.494 129.425 102.935 130.033 101.594C130.641 100.247 131.488 99.196 132.573 98.4403C133.658 97.6847 134.917 97.3068 136.349 97.3068C137.781 97.3068 139.039 97.6847 140.124 98.4403C141.21 99.1903 142.056 100.239 142.664 101.585C143.272 102.932 143.576 104.494 143.576 106.273ZM143.031 106.273C143.031 104.602 142.749 103.136 142.187 101.875C141.624 100.608 140.84 99.6222 139.835 98.9176C138.835 98.2074 137.673 97.8523 136.349 97.8523C135.031 97.8523 133.869 98.2045 132.863 98.9091C131.863 99.608 131.079 100.591 130.511 101.858C129.948 103.119 129.667 104.591 129.667 106.273C129.667 107.932 129.945 109.395 130.502 110.662C131.059 111.923 131.837 112.912 132.837 113.628C133.843 114.338 135.013 114.693 136.349 114.693C137.673 114.693 138.837 114.341 139.843 113.636C140.849 112.926 141.633 111.94 142.195 110.679C142.758 109.412 143.036 107.943 143.031 106.273ZM148.04 115V97.5455H148.585V114.455H157.312V115H148.04ZM166.108 115H161.54V97.5455H166.551C168.159 97.5455 169.534 97.892 170.676 98.5852C171.824 99.2727 172.702 100.261 173.31 101.551C173.923 102.841 174.227 104.392 174.222 106.205C174.216 108.062 173.892 109.648 173.25 110.96C172.614 112.267 171.69 113.267 170.48 113.96C169.276 114.653 167.818 115 166.108 115ZM162.085 114.455H166.108C167.722 114.455 169.094 114.128 170.224 113.474C171.355 112.815 172.213 111.869 172.798 110.636C173.389 109.403 173.682 107.926 173.676 106.205C173.67 104.506 173.386 103.051 172.824 101.841C172.267 100.631 171.46 99.7045 170.403 99.0625C169.347 98.4148 168.063 98.0909 166.551 98.0909H162.085V114.455ZM178.696 115V97.5455H188.003V98.0909H179.241V106H187.491V106.545H179.241V114.455H188.241V115H178.696ZM192.712 115V97.5455H197.825C198.803 97.5455 199.666 97.7528 200.416 98.1676C201.172 98.5824 201.763 99.1619 202.189 99.9062C202.621 100.651 202.837 101.523 202.837 102.523C202.837 103.511 202.621 104.378 202.189 105.122C201.763 105.861 201.172 106.437 200.416 106.852C199.666 107.261 198.803 107.466 197.825 107.466H192.984V106.92H197.825C198.7 106.92 199.473 106.739 200.143 106.375C200.814 106.011 201.339 105.5 201.72 104.841C202.101 104.182 202.291 103.409 202.291 102.523C202.291 101.631 202.101 100.852 201.72 100.188C201.339 99.5227 200.814 99.0085 200.143 98.6449C199.473 98.2756 198.7 98.0909 197.825 98.0909H193.257V115H192.712ZM199.359 107.057L203.655 115H203.041L198.746 107.057H199.359Z" fill="#9CA3AF"/>
<path d="M120 13L138 49H102L120 13Z" fill="#9CA3AF"/>
<path d="M147 49L129 13L165 13L147 49Z" fill="#9CA3AF"/>
<path d="M93 49L75 13L111 13L93 49Z" fill="#9CA3AF"/>
</svg>
